<svg width="512" height="512" viewBox="0 0 512 512" fill="none" xmlns="http://www.w3.org/2000/svg">
  <!-- Document base -->
  <!-- Top-left: x=96, y=64 (radius 32) -->
  <!-- Bottom-left: x=96, y=448 (radius 32) -->
  <!-- Bottom-right: x=384, y=448 (radius 32) -->
  <!-- Top-right straight until fold: x=384, y=160 -->
  <path d="M128 48C101.49 48 80 69.49 80 96v320c0 26.51 21.51 48 48 48h256c26.51 0 48-21.49 48-48V160H304c-17.67 0-32-14.33-32-32V48H128z" fill="#3173F6"/>
  
  <!-- Fold piece -->
  <path d="M432 160l-128-128v96c0 17.67 14.33 32 32 32h96z" fill="#3173F6" stroke="white" stroke-width="8" stroke-linejoin="round"/>
  
  <!-- Content lines (White) -->
  <rect x="144" y="200" width="224" height="24" rx="12" fill="white"/>
  <rect x="144" y="260" width="224" height="24" rx="12" fill="white"/>
  <rect x="144" y="320" width="160" height="24" rx="12" fill="white"/>
  <rect x="144" y="380" width="112" height="24" rx="12" fill="white"/>

  <!-- Refresh icon background circle to cutout the corner -->
  <circle cx="368" cy="368" r="88" fill="white" />

  <!-- Refresh Arrow inside the circle -->
  <!-- Thick arrow with a path -->
  <path d="M368 312c30.93 0 56 25.07 56 56 0 30.93-25.07 56-56 56-30.93 0-56-25.07-56-56 0-14.18 5.26-27.13 13.92-37M372 284v42h42" stroke="#3173F6" stroke-width="24" stroke-linecap="round" stroke-linejoin="round" fill="none"/>
</svg>
