<svg width="512" height="512" viewBox="0 0 512 512" fill="none" xmlns="http://www.w3.org/2000/svg">
  <!-- Document base with rounded corners -->
  <rect x="64" y="32" width="320" height="416" rx="40" ry="40" fill="#3173F6"/>
  
  <!-- White fold triangle overlay -->
  <path d="M272 32v92c0 13.25 10.75 24 24 24h88L272 32z" fill="white" opacity="0.35"/>
  <path d="M272 32v92c0 13.25 10.75 24 24 24h88" fill="none" stroke="white" stroke-width="4" opacity="0.6"/>

  <!-- Content lines (White) -->
  <rect x="120" y="192" width="200" height="22" rx="11" fill="white"/>
  <rect x="120" y="252" width="200" height="22" rx="11" fill="white"/>
  <rect x="120" y="312" width="140" height="22" rx="11" fill="white"/>

  <!-- White circle background for refresh icon -->
  <circle cx="360" cy="388" r="90" fill="white"/>

  <!-- Refresh arrow as a filled shape -->
  <path d="
    M 380 328
    A 72 72 0 1 0 396 378
    L 382 378
    A 56 56 0 1 1 370 342
    L 370 358
    L 404 334
    L 364 310
    L 364 328
    Z
  " fill="#3173F6"/>
</svg>
